<?xml version="1.0" encoding="utf-8"?>
<!-- Generator: Adobe Illustrator 18.0.0, SVG Export Plug-In . SVG Version: 6.00 Build 0)  -->
<!DOCTYPE svg PUBLIC "-//W3C//DTD SVG 1.1//EN" "http://www.w3.org/Graphics/SVG/1.1/DTD/svg11.dtd">
<svg version="1.1" id="Layer_1" xmlns="http://www.w3.org/2000/svg" xmlns:xlink="http://www.w3.org/1999/xlink" x="0px" y="0px"
	 viewBox="0 0 318.5 74.4" enable-background="new 0 0 318.5 74.4" xml:space="preserve">
<g>
	<polygon fill="#FFFFFF" points="78.3,30.8 78,30.8 77.8,31.1 74,39.1 70.1,31.1 69.9,30.8 69.6,30.8 64.5,30.8 64,30.8 64,31.3 
		64,34 64,34.5 64.5,34.5 65.4,34.5 65.4,46.1 64.4,46.1 63.9,46.1 63.9,46.6 63.9,49.3 63.9,49.8 64.4,49.8 70.2,49.8 70.7,49.8 
		70.7,49.3 70.7,46.6 70.7,46.1 70.2,46.1 69.2,46.1 69.2,37.9 73.5,46.8 74,47.7 74.4,46.8 78.8,37.8 78.8,46.1 77.8,46.1 
		77.3,46.1 77.3,46.6 77.3,49.3 77.3,49.8 77.8,49.8 83.6,49.8 84.1,49.8 84.1,49.3 84.1,46.6 84.1,46.1 83.6,46.1 82.6,46.1 
		82.6,34.5 83.6,34.5 84.1,34.5 84.1,34 84.1,31.3 84.1,30.8 83.6,30.8 	"/>
	<path fill="#FFFFFF" d="M50.4,49.8v-0.5v-2.8V46H50h-1.5l-5-11.6h0.5h0.5V34v-2.8v-0.5h-0.5h-7.1h-0.5v0.5V34v0.5h0.5h0.6l-5,11.6
		h-1.6h-0.5v0.5v2.8v0.5h0.5h6.3h0.5v-0.5v-2.8V46h-0.5h-0.6l0.8-1.9h6l0.8,1.9h-0.6h-0.5v0.5v2.8v0.5h0.5H50H50.4z M39,40.4
		l1.4-3.2l1.4,3.2H39z"/>
	<path fill="#FFFFFF" d="M61.2,52.3V23.7h8.6v4v0.6h0.6h7.1h0.6v-0.6V16.8v-0.6h-0.6H36.8h-0.6v0.6v10.9v0.6h0.6h7h0.6v-0.6v-4h8.7
		v28.6h-4h-0.6v0.6v7v0.6H49h16.2h0.6v-0.6v-7v-0.6h-0.6H61.2z M76.4,26.6L74.7,25v-4.4l1.7-1.8V26.6z M39.6,19.7l-1.8-1.7h37.6
		l-2.2,1.7H39.6z M59.5,54l-1.7,1.7V20.3l1.7,1.7V54z M64.1,58.8l-1.7-1.6v-1.4l1.7-1.8V58.8z"/>
	<path fill="#FFFFFF" d="M71.6,58.2c0-0.6-0.4-0.9-1.1-0.9h-1.1v3h0.6V59h0.3l0.8,1.3h0.6l-0.8-1.3C71.3,58.9,71.6,58.7,71.6,58.2z
		 M69.9,58.5v-0.8h0.5c0.3,0,0.6,0.1,0.6,0.4c0,0.4-0.3,0.4-0.6,0.4H69.9z"/>
	<path fill="#FFFFFF" d="M70.4,56.2c-1.4,0-2.6,1.2-2.6,2.6s1.2,2.6,2.6,2.6c1.4,0,2.6-1.2,2.6-2.6S71.8,56.2,70.4,56.2z M70.4,60.9
		c-1.1,0-2-0.9-2-2.1c0-1.2,0.9-2.1,2-2.1c1.1,0,2,0.9,2,2.1C72.4,60,71.5,60.9,70.4,60.9z"/>
	<rect x="97.9" y="16.3" fill="#FFFFFF" width="1.2" height="44.2"/>
	<polygon fill="#FFFFFF" points="121.3,19.2 114.2,19.2 114.2,43.7 131.1,43.7 131.1,38.2 121.3,38.2 	"/>
	<rect x="133.1" y="19.2" fill="#FFFFFF" width="7.2" height="24.6"/>
	<path fill="#FFFFFF" d="M160.1,31.1c2.3-1.1,3.4-2.9,3.4-5.5c0-4-3-6.4-8.1-6.4H144v24.6h10.4c6.3,0,9.7-2.5,9.7-7.3
		C164.1,33.8,162.8,32,160.1,31.1z M151.2,33.7h1.5c2.5,0,4.2,0.4,4.2,2.4c0,1.7-1.2,2.3-4.3,2.3h-1.4V33.7z M152.5,28.5h-1.3v-4
		h1.4c2.4,0,3.7,0.3,3.7,2C156.3,28.2,154.3,28.5,152.5,28.5z"/>
	<path fill="#FFFFFF" d="M179,39.2l1.5,4.6h7.5l-2.5-7c-0.3-0.6-0.5-1.2-0.7-1.7c-0.5-1.5-1-2.6-2-3.3c2.5-1,3.8-3,3.8-6.1
		c0-4-3.1-6.4-8.1-6.4h-11.7v24.6h7.2v-9.4h0.9C176.9,34.4,177.7,35,179,39.2z M174.1,24.5h1.2c2.9,0,4.2,0.7,4.2,2.2
		c0,2.2-1.9,2.3-4.2,2.3h-1.2V24.5z"/>
	<path fill="#FFFFFF" d="M207.8,43.7h7.9l-9.5-24.6h-8.3l-9.3,24.6h7.3l1.9-5.1h8.3L207.8,43.7z M204.2,33.3h-4.8l2.5-7.6
		L204.2,33.3z"/>
	<path fill="#FFFFFF" d="M234.9,35c-0.5-1.5-1-2.6-2-3.3c2.5-1,3.9-3,3.9-6.1c0-4-3.1-6.4-8.1-6.4H217v24.6h7.2v-9.4h0.9
		c2,0,2.7,0.6,4,4.8l1.5,4.6h7.5l-2.5-7C235.3,36.1,235.1,35.5,234.9,35z M224.2,24.5h1.2c2.9,0,4.2,0.7,4.2,2.2
		c0,2.2-1.9,2.3-4.2,2.3h-1.2V24.5z"/>
	<rect x="240.1" y="19.2" fill="#FFFFFF" width="7.2" height="24.6"/>
	<polygon fill="#FFFFFF" points="269,38.4 258.2,38.4 258.2,33.9 268,33.9 268,28.5 258.2,28.5 258.2,24.5 268.6,24.5 268.6,19.2 
		251.1,19.2 251.1,43.7 269,43.7 	"/>
	<path fill="#FFFFFF" d="M289.8,35.9c0-5.5-4.4-6.7-7.6-7.6c-2.3-0.6-3.7-1.1-3.7-2.2c0-1.2,1.2-1.8,3.8-1.8c1.8,0,3.6,0.4,5.1,1
		l0.5,0.3l0.5-5.8l-0.3-0.1c-1.7-0.6-4-0.9-6.3-0.9c-3.2,0-10.8,0.8-10.8,7.7c0,5.3,4,6.6,7.3,7.6c2.4,0.7,3.9,1.3,3.9,2.7
		c0,0.8-0.4,1.9-3.5,1.9c-2.3,0-4.5-0.5-6.3-1.5l-0.6-0.3l-0.6,6.2l0.3,0.1c2,0.6,4.8,1,7.2,1C286,44.1,289.8,41.3,289.8,35.9z"/>
	<path fill="#FFFFFF" d="M114,50.2h0.5c0-0.5,0.1-0.8,0.3-1c0.2-0.2,0.3-0.4,0.5-0.4c0.2,0,0.5-0.1,0.8-0.1h0.8V54
		c0,0.3-0.1,0.5-0.2,0.7c-0.1,0.1-0.4,0.2-0.9,0.2v0.5h3.7v-0.5c-0.3,0-0.5,0-0.7-0.1c-0.2-0.1-0.3-0.2-0.3-0.3
		c0-0.1-0.1-0.3-0.1-0.5v-5.4h0.9c0.2,0,0.4,0,0.6,0.1c0.2,0.1,0.3,0.2,0.5,0.4c0.2,0.2,0.3,0.6,0.3,1h0.5v-2.1H114V50.2z"/>
	<path fill="#FFFFFF" d="M129.4,54.2c-0.2,0.3-0.4,0.4-0.7,0.5c-0.2,0.1-0.5,0.1-0.7,0.1h-0.6c-0.3,0-0.5,0-0.6-0.1
		c-0.1,0-0.2-0.1-0.3-0.2c-0.1-0.1-0.1-0.2-0.1-0.3c0-0.1,0-0.3,0-0.6v-1.7h0.8c0.3,0,0.4,0,0.6,0.1c0.1,0,0.2,0.1,0.3,0.3
		c0.1,0.1,0.1,0.3,0.1,0.6h0.5v-2.4h-0.5c0,0.3-0.1,0.5-0.1,0.6c0,0.1-0.1,0.2-0.3,0.3c-0.1,0-0.3,0.1-0.6,0.1h-0.7v-2.6h1.4
		c0.4,0,0.6,0,0.8,0.1c0.2,0,0.3,0.2,0.5,0.3c0.1,0.2,0.3,0.5,0.4,0.9h0.5l-0.1-1.9h-6.1v0.5c0.3,0,0.6,0,0.7,0.1
		c0.2,0.1,0.2,0.2,0.3,0.3c0,0.1,0.1,0.3,0.1,0.5V54c0,0.3-0.1,0.5-0.2,0.7c-0.1,0.1-0.4,0.2-0.9,0.2v0.5h6.5l0.1-2.4h-0.5
		C129.8,53.5,129.6,54,129.4,54.2z"/>
	<path fill="#FFFFFF" d="M140.2,54.4c-0.2-0.2-0.4-0.4-0.7-0.8l-1.8-2.3l1.3-1.5c0.3-0.3,0.5-0.6,0.6-0.7c0.1-0.1,0.3-0.3,0.5-0.3
		c0.2-0.1,0.4-0.1,0.7-0.1v-0.5h-3v0.5h0.3c0.2,0,0.4,0,0.5,0.1c0.1,0.1,0.1,0.1,0.1,0.3c0,0.1,0,0.2,0,0.2c0,0.1-0.1,0.2-0.2,0.3
		l-1.2,1.4l-1-1.3c-0.2-0.3-0.3-0.5-0.3-0.6c0-0.1,0.1-0.2,0.2-0.2c0.1,0,0.3,0,0.5,0h0.3v-0.5h-4v0.5c0.3,0,0.5,0,0.7,0.1
		c0.2,0.1,0.3,0.1,0.4,0.3c0.1,0.1,0.3,0.4,0.6,0.7l1.8,2.3l-1.3,1.5c-0.4,0.4-0.7,0.7-0.9,0.9c-0.2,0.2-0.4,0.3-0.6,0.4
		c-0.2,0.1-0.4,0.1-0.6,0.1v0.5h3.2v-0.5c-0.2,0-0.4,0-0.5,0c-0.1,0-0.2-0.1-0.3-0.1c-0.1-0.1-0.1-0.2-0.1-0.3
		c0-0.2,0.1-0.4,0.4-0.7l1.1-1.3l1.2,1.6c0.2,0.3,0.3,0.4,0.3,0.5c0,0.2-0.1,0.3-0.2,0.3c-0.1,0-0.3,0.1-0.5,0.1h-0.3v0.5h4.3v-0.5
		c-0.3,0-0.5,0-0.7-0.1C140.5,54.7,140.4,54.6,140.2,54.4z"/>
	<path fill="#FFFFFF" d="M150.2,54.5c-0.1-0.1-0.2-0.4-0.4-0.8l-2.2-5.7h-0.5l-2.1,5.5c-0.1,0.4-0.3,0.7-0.4,0.9
		c-0.1,0.2-0.3,0.4-0.4,0.4c-0.1,0.1-0.3,0.1-0.5,0.1v0.5h2.5v-0.5c-0.2,0-0.4,0-0.6-0.1c-0.2-0.1-0.3-0.2-0.3-0.4
		c0-0.1,0.1-0.3,0.2-0.6l0.2-0.5h2.4l0.3,0.9c0,0.1,0.1,0.2,0.1,0.3c0,0.2-0.1,0.3-0.2,0.3c-0.1,0-0.3,0.1-0.6,0.1v0.5h3.4v-0.5
		c-0.2,0-0.4,0-0.6-0.1C150.4,54.7,150.3,54.6,150.2,54.5z M145.9,52.8l1-2.6l1,2.6H145.9z"/>
	<path fill="#FFFFFF" d="M157.8,51.6c-0.3-0.2-0.7-0.4-1.3-0.7c-0.4-0.2-0.8-0.4-1-0.5c-0.2-0.1-0.4-0.2-0.5-0.4
		c-0.1-0.2-0.2-0.3-0.2-0.6c0-0.3,0.1-0.5,0.3-0.7c0.2-0.2,0.5-0.3,0.8-0.3c0.9,0,1.5,0.6,1.9,1.7h0.5v-2h-0.5
		c-0.1,0.3-0.1,0.5-0.2,0.6c-0.2-0.3-0.5-0.5-0.8-0.6c-0.3-0.2-0.6-0.2-1-0.2c-0.4,0-0.8,0.1-1.2,0.3c-0.3,0.2-0.6,0.5-0.8,0.8
		c-0.2,0.3-0.3,0.6-0.3,1c0,0.2,0,0.4,0.1,0.5c0.1,0.2,0.2,0.4,0.3,0.6c0.1,0.2,0.4,0.4,0.6,0.6c0.3,0.2,0.6,0.4,1.1,0.6
		c0.3,0.1,0.5,0.3,0.8,0.4c0.2,0.1,0.4,0.2,0.5,0.3c0.1,0.1,0.2,0.2,0.3,0.3c0.1,0.1,0.1,0.3,0.1,0.5c0,0.3-0.1,0.6-0.3,0.8
		c-0.2,0.2-0.5,0.3-0.9,0.3c-0.4,0-0.8-0.1-1.1-0.3c-0.3-0.2-0.5-0.5-0.7-0.8c-0.2-0.3-0.3-0.7-0.4-1h-0.5v2.5h0.5
		c0-0.2,0.1-0.5,0.2-0.7c0.3,0.3,0.6,0.6,1,0.8c0.4,0.2,0.8,0.3,1.2,0.3c0.4,0,0.7-0.1,1-0.2c0.3-0.1,0.5-0.3,0.7-0.6
		c0.2-0.2,0.3-0.5,0.4-0.7c0.1-0.3,0.1-0.5,0.1-0.7c0-0.4-0.1-0.7-0.3-1C158.4,52,158.1,51.7,157.8,51.6z"/>
	<path fill="#FFFFFF" d="M172.2,54.5c-0.1-0.1-0.2-0.4-0.4-0.8l-2.2-5.7h-0.5l-2.1,5.5c-0.1,0.4-0.3,0.7-0.4,0.9
		c-0.1,0.2-0.3,0.4-0.4,0.4c-0.1,0.1-0.3,0.1-0.5,0.1v0.5h2.5v-0.5c-0.2,0-0.4,0-0.6-0.1c-0.2-0.1-0.3-0.2-0.3-0.4
		c0-0.1,0.1-0.3,0.2-0.6l0.2-0.5h2.4l0.3,0.9c0,0.1,0.1,0.2,0.1,0.3c0,0.2-0.1,0.3-0.2,0.3c-0.1,0-0.3,0.1-0.6,0.1v0.5h3.4v-0.5
		c-0.2,0-0.4,0-0.6-0.1C172.4,54.7,172.3,54.6,172.2,54.5z M167.9,52.8l1-2.6l1,2.6H167.9z"/>
	<path fill="#FFFFFF" d="M182.3,54.3c-0.1,0.1-0.1,0.2-0.2,0.3c-0.1,0.1-0.2,0.1-0.3,0.1c-0.2,0-0.4-0.1-0.6-0.3
		c-0.2-0.2-0.4-0.4-0.6-0.7c0.2-0.2,0.4-0.5,0.6-0.8l0.2-0.4c0.2-0.4,0.4-0.6,0.5-0.7c0.1-0.1,0.2-0.2,0.3-0.3
		c0.1-0.1,0.3-0.1,0.5-0.2v-0.5h-2.2v0.5c0.2,0,0.4,0.1,0.5,0.2c0.1,0.1,0.1,0.2,0.1,0.3c0,0.2-0.1,0.5-0.2,0.7
		c-0.2,0.3-0.3,0.5-0.5,0.8l-1.7-2.2c0.4-0.2,0.8-0.5,1-0.8c0.2-0.3,0.3-0.6,0.3-0.9c0-0.2-0.1-0.5-0.2-0.7
		c-0.1-0.2-0.3-0.4-0.5-0.5c-0.2-0.1-0.5-0.2-0.8-0.2c-0.2,0-0.4,0-0.6,0.1c-0.2,0.1-0.4,0.2-0.6,0.3c-0.2,0.1-0.3,0.3-0.4,0.5
		c-0.1,0.2-0.2,0.5-0.2,0.7c0,0.3,0,0.5,0.1,0.8c0.1,0.2,0.2,0.5,0.4,0.8c-0.5,0.3-0.8,0.5-1.1,0.8c-0.3,0.3-0.4,0.6-0.5,0.8
		c-0.1,0.2-0.1,0.5-0.1,0.7c0,0.3,0.1,0.7,0.3,1c0.2,0.3,0.4,0.5,0.7,0.7c0.3,0.2,0.7,0.3,1,0.3c0.3,0,0.7-0.1,1.1-0.2
		c0.4-0.2,0.7-0.4,1.1-0.8c0.3,0.3,0.5,0.5,0.7,0.6c0.2,0.1,0.4,0.2,0.5,0.3c0.2,0.1,0.3,0.1,0.5,0.1c0.3,0,0.6-0.1,0.8-0.3
		c0.2-0.2,0.4-0.4,0.5-0.7c0.1-0.3,0.2-0.5,0.2-0.8h-0.5C182.4,54,182.4,54.1,182.3,54.3z M177.8,48.7c0.1-0.1,0.3-0.2,0.5-0.2
		c0.2,0,0.3,0,0.4,0.1c0.1,0.1,0.2,0.2,0.3,0.3c0.1,0.1,0.1,0.3,0.1,0.4c0,0.3-0.1,0.5-0.2,0.7c-0.2,0.2-0.4,0.4-0.6,0.6
		c-0.4-0.6-0.6-1-0.6-1.5C177.6,49,177.7,48.8,177.8,48.7z M178.8,54.5c-0.2,0.1-0.4,0.1-0.6,0.1c-0.3,0-0.5-0.1-0.8-0.3
		c-0.2-0.2-0.4-0.4-0.6-0.7c-0.1-0.3-0.2-0.5-0.2-0.8c0-0.5,0.3-0.9,0.8-1.2l1.9,2.5C179.2,54.3,179,54.4,178.8,54.5z"/>
	<path fill="#FFFFFF" d="M190.5,53.2l-2.4-5.2h-2.7v0.5c0.3,0,0.6,0,0.7,0.1c0.1,0.1,0.2,0.2,0.3,0.3c0,0.1,0,0.4,0,0.7v4.1
		c0,0.2,0,0.4,0,0.5c0,0.1-0.1,0.2-0.1,0.3c-0.1,0.1-0.2,0.2-0.3,0.2c-0.1,0-0.3,0.1-0.6,0.1v0.5h2.7v-0.5c-0.3,0-0.5,0-0.6-0.1
		c-0.1,0-0.2-0.1-0.3-0.2c-0.1-0.1-0.1-0.2-0.1-0.3c0-0.1,0-0.3,0-0.5v-4.4l2.8,5.9h0.3l2.8-5.9V54c0,0.2,0,0.4-0.1,0.5
		c0,0.1-0.1,0.2-0.3,0.3c-0.1,0.1-0.4,0.1-0.7,0.1v0.5h3.7v-0.5c-0.3,0-0.5,0-0.7-0.1c-0.2-0.1-0.3-0.2-0.3-0.3
		c0-0.1-0.1-0.3-0.1-0.5v-4.6c0-0.3,0.1-0.5,0.2-0.7c0.1-0.1,0.4-0.2,0.9-0.2v-0.5h-2.6L190.5,53.2z"/>
	<path fill="#FFFFFF" d="M207.4,48.6c0.3,0,0.5,0,0.6,0.1c0.1,0,0.3,0.1,0.3,0.2c0.1,0.1,0.1,0.2,0.1,0.3c0,0.1,0,0.3,0,0.5v2.6
		c0,0.3,0,0.6,0,0.9c0,0.2-0.1,0.5-0.2,0.7c-0.1,0.3-0.4,0.5-0.7,0.7c-0.3,0.2-0.7,0.3-1.1,0.3c-0.4,0-0.7-0.1-1-0.3
		c-0.3-0.2-0.5-0.4-0.6-0.7c-0.1-0.2-0.1-0.4-0.1-0.6c0-0.2,0-0.5,0-0.8v-3c0-0.2,0-0.4,0.1-0.5c0-0.1,0.1-0.2,0.3-0.3
		c0.2-0.1,0.4-0.1,0.7-0.1v-0.5h-3.7v0.5c0.5,0,0.7,0.1,0.9,0.2c0.1,0.1,0.2,0.4,0.2,0.7l0,3c0,0.3,0,0.5,0,0.6c0,0.2,0,0.3,0.1,0.5
		c0,0.2,0.1,0.4,0.2,0.5c0.2,0.3,0.4,0.6,0.7,0.8c0.3,0.2,0.6,0.3,1,0.4c0.4,0.1,0.7,0.1,1,0.1c0.5,0,0.9-0.1,1.4-0.3
		c0.5-0.2,0.9-0.5,1.1-1c0.1-0.3,0.2-0.5,0.3-0.8c0-0.2,0.1-0.6,0.1-1.1v-2.7c0-0.3,0-0.5,0-0.6c0-0.1,0.1-0.2,0.3-0.3
		c0.1-0.1,0.4-0.1,0.7-0.1v-0.5h-2.7V48.6z"/>
	<path fill="#FFFFFF" d="M217.8,48.6c0.3,0,0.6,0,0.7,0.1s0.2,0.2,0.3,0.3c0,0.1,0.1,0.4,0.1,0.6V53l-4.2-4.9h-2.1v0.5
		c0.2,0,0.4,0.1,0.6,0.1c0.1,0.1,0.2,0.2,0.3,0.3c0.1,0.1,0.1,0.2,0.1,0.4c0,0.2,0,0.4,0,0.7v3.7c0,0.3,0,0.5-0.1,0.7
		c0,0.1-0.1,0.2-0.3,0.3c-0.1,0.1-0.4,0.1-0.7,0.1v0.5h2.7v-0.5c-0.3,0-0.6,0-0.8-0.1s-0.2-0.2-0.3-0.3c0-0.1-0.1-0.4-0.1-0.7v-4
		l4.8,5.7h0.5v-5.8c0-0.3,0-0.5,0.1-0.7c0-0.1,0.1-0.2,0.3-0.3c0.2-0.1,0.4-0.1,0.8-0.1v-0.5h-2.7V48.6z"/>
	<path fill="#FFFFFF" d="M223,48.6c0.5,0,0.8,0.1,0.9,0.2c0.1,0.1,0.2,0.4,0.2,0.7V54c0,0.2,0,0.4-0.1,0.5c0,0.1-0.2,0.2-0.3,0.3
		c-0.2,0.1-0.4,0.1-0.7,0.1v0.5h3.7v-0.5c-0.3,0-0.6,0-0.7-0.1c-0.2-0.1-0.3-0.2-0.3-0.3c0-0.1-0.1-0.3-0.1-0.5v-4.6
		c0-0.2,0-0.4,0.1-0.5c0-0.1,0.2-0.2,0.3-0.3c0.2-0.1,0.4-0.1,0.7-0.1v-0.5H223V48.6z"/>
	<path fill="#FFFFFF" d="M234.6,48.6c0.3,0,0.6,0,0.7,0.1c0.2,0.1,0.2,0.2,0.2,0.4c0,0.1-0.1,0.3-0.2,0.7l-1.6,3.7l-1.7-3.9
		c-0.1-0.2-0.1-0.4-0.1-0.5c0-0.2,0.1-0.3,0.2-0.3c0.1,0,0.4-0.1,0.7-0.1v-0.5h-3.7v0.5c0.3,0,0.5,0,0.6,0.1
		c0.1,0.1,0.3,0.1,0.3,0.3c0.1,0.1,0.2,0.4,0.4,0.8l2.5,5.8h0.5l2.4-5.6c0.1-0.3,0.3-0.6,0.3-0.7c0.1-0.2,0.2-0.3,0.2-0.4
		c0.1-0.1,0.2-0.2,0.3-0.2c0.1,0,0.3-0.1,0.5-0.1v-0.5h-2.7V48.6z"/>
	<path fill="#FFFFFF" d="M245.4,54.2c-0.2,0.3-0.4,0.4-0.7,0.5c-0.2,0.1-0.5,0.1-0.7,0.1h-0.6c-0.3,0-0.5,0-0.6-0.1
		c-0.1,0-0.2-0.1-0.3-0.2c-0.1-0.1-0.1-0.2-0.1-0.3c0-0.1,0-0.3,0-0.6v-1.7h0.8c0.3,0,0.4,0,0.6,0.1c0.1,0,0.2,0.1,0.3,0.3
		c0.1,0.1,0.1,0.3,0.1,0.6h0.5v-2.4H244c0,0.3-0.1,0.5-0.1,0.6c0,0.1-0.1,0.2-0.3,0.3c-0.1,0-0.3,0.1-0.6,0.1h-0.7v-2.6h1.4
		c0.4,0,0.6,0,0.8,0.1s0.3,0.2,0.5,0.3c0.1,0.2,0.3,0.5,0.4,0.9h0.5l-0.1-1.9h-6.1v0.5c0.3,0,0.6,0,0.7,0.1c0.2,0.1,0.2,0.2,0.3,0.3
		c0,0.1,0.1,0.3,0.1,0.5V54c0,0.3-0.1,0.5-0.2,0.7c-0.1,0.1-0.4,0.2-0.9,0.2v0.5h6.5l0.1-2.4h-0.5C245.7,53.5,245.6,54,245.4,54.2z"
		/>
	<path fill="#FFFFFF" d="M255.9,54.4c-0.1-0.2-0.3-0.4-0.6-0.8c-0.4-0.6-0.7-1-0.9-1.3c-0.2-0.2-0.4-0.4-0.7-0.6
		c0.4-0.1,0.7-0.2,0.9-0.4c0.2-0.2,0.4-0.4,0.5-0.6c0.1-0.2,0.2-0.5,0.2-0.7c0-0.3-0.1-0.6-0.2-0.9c-0.2-0.3-0.4-0.5-0.6-0.6
		c-0.2-0.2-0.5-0.3-0.8-0.3c-0.2-0.1-0.4-0.1-0.8-0.1c-0.3,0-0.7-0.1-1-0.1c-0.3,0-0.4,0-0.6,0c-0.1,0-0.3,0-0.5,0
		c-0.2,0-0.3,0-0.4,0l-1.7,0.1v0.5c0.5,0,0.7,0.1,0.9,0.2c0.1,0.1,0.2,0.4,0.2,0.7V54c0,0.3-0.1,0.5-0.2,0.7
		c-0.1,0.1-0.4,0.2-0.9,0.2v0.5h3.7v-0.5c-0.3,0-0.5,0-0.7-0.1c-0.2-0.1-0.3-0.2-0.3-0.3c0-0.1-0.1-0.3-0.1-0.5v-1.9h0.3
		c0.3,0,0.6,0,0.7,0.1c0.1,0,0.3,0.1,0.4,0.3c0.1,0.1,0.3,0.4,0.5,0.8l0.5,0.8c0.1,0.1,0.2,0.3,0.3,0.5c0.1,0.2,0.2,0.4,0.3,0.5
		c0.1,0.2,0.2,0.3,0.3,0.3h2v-0.5c-0.2,0-0.3-0.1-0.5-0.1C256.2,54.7,256.1,54.6,255.9,54.4z M253.2,51.3c-0.4,0.2-0.8,0.3-1.4,0.3
		h-0.3v-2.9c0.1,0,0.1,0,0.2,0c0,0,0.1,0,0.2,0c0.6,0,1,0.1,1.4,0.3c0.4,0.2,0.5,0.6,0.5,1.2C253.8,50.7,253.6,51.1,253.2,51.3z"/>
	<path fill="#FFFFFF" d="M263.5,51.6c-0.3-0.2-0.7-0.4-1.3-0.7c-0.4-0.2-0.8-0.4-1-0.5c-0.2-0.1-0.4-0.2-0.5-0.4
		c-0.1-0.2-0.2-0.3-0.2-0.6c0-0.3,0.1-0.5,0.3-0.7c0.2-0.2,0.5-0.3,0.8-0.3c0.9,0,1.5,0.6,1.9,1.7h0.5v-2h-0.5
		c-0.1,0.3-0.1,0.5-0.2,0.6c-0.2-0.3-0.5-0.5-0.8-0.6c-0.3-0.2-0.6-0.2-1-0.2c-0.4,0-0.8,0.1-1.2,0.3c-0.3,0.2-0.6,0.5-0.8,0.8
		c-0.2,0.3-0.3,0.6-0.3,1c0,0.2,0,0.4,0.1,0.5c0.1,0.2,0.2,0.4,0.3,0.6s0.4,0.4,0.6,0.6c0.3,0.2,0.6,0.4,1.1,0.6
		c0.3,0.1,0.5,0.3,0.8,0.4c0.2,0.1,0.4,0.2,0.5,0.3c0.1,0.1,0.2,0.2,0.3,0.3c0.1,0.1,0.1,0.3,0.1,0.5c0,0.3-0.1,0.6-0.3,0.8
		c-0.2,0.2-0.5,0.3-0.9,0.3c-0.4,0-0.8-0.1-1.1-0.3c-0.3-0.2-0.5-0.5-0.7-0.8c-0.2-0.3-0.3-0.7-0.4-1h-0.5v2.5h0.5
		c0-0.2,0.1-0.5,0.2-0.7c0.3,0.3,0.6,0.6,1,0.8c0.4,0.2,0.8,0.3,1.2,0.3c0.4,0,0.7-0.1,1-0.2c0.3-0.1,0.5-0.3,0.7-0.6
		c0.2-0.2,0.3-0.5,0.4-0.7c0.1-0.3,0.1-0.5,0.1-0.7c0-0.4-0.1-0.7-0.3-1C264.1,52,263.8,51.7,263.5,51.6z"/>
	<path fill="#FFFFFF" d="M267.1,48.6c0.5,0,0.8,0.1,0.9,0.2c0.1,0.1,0.2,0.4,0.2,0.7V54c0,0.2,0,0.4-0.1,0.5c0,0.1-0.2,0.2-0.3,0.3
		c-0.2,0.1-0.4,0.1-0.7,0.1v0.5h3.7v-0.5c-0.3,0-0.6,0-0.7-0.1c-0.2-0.1-0.3-0.2-0.3-0.3c0-0.1-0.1-0.3-0.1-0.5v-4.6
		c0-0.2,0-0.4,0.1-0.5c0-0.1,0.2-0.2,0.3-0.3c0.2-0.1,0.4-0.1,0.7-0.1v-0.5h-3.7V48.6z"/>
	<path fill="#FFFFFF" d="M273.3,50.2h0.5c0-0.5,0.1-0.8,0.3-1c0.2-0.2,0.3-0.4,0.5-0.4c0.2,0,0.5-0.1,0.8-0.1h0.8V54
		c0,0.3-0.1,0.5-0.2,0.7c-0.1,0.1-0.4,0.2-0.9,0.2v0.5h3.7v-0.5c-0.3,0-0.5,0-0.7-0.1c-0.2-0.1-0.3-0.2-0.3-0.3
		c0-0.1-0.1-0.3-0.1-0.5v-5.4h0.9c0.2,0,0.4,0,0.6,0.1c0.2,0.1,0.3,0.2,0.5,0.4c0.2,0.2,0.3,0.6,0.3,1h0.5v-2.1h-7.2V50.2z"/>
	<path fill="#FFFFFF" d="M287.6,48.1v0.5c0.3,0,0.5,0,0.6,0.1c0.1,0.1,0.2,0.2,0.2,0.4c0,0.2-0.1,0.4-0.4,0.8l-1.1,1.7l-1.1-1.9
		c-0.2-0.3-0.3-0.4-0.3-0.5c0-0.1-0.1-0.2-0.1-0.2c0-0.1,0-0.2,0.1-0.2c0.1,0,0.1-0.1,0.2-0.1c0.1,0,0.2,0,0.4,0v-0.5h-3.4v0.5
		c0.2,0,0.4,0.1,0.5,0.1c0.1,0.1,0.3,0.2,0.4,0.5c0,0,0,0,0,0.1c0,0,0,0.1,0,0.1l1.8,3.1V54c0,0.2,0,0.4-0.1,0.5
		c0,0.1-0.2,0.2-0.3,0.3c-0.2,0.1-0.4,0.1-0.7,0.1v0.5h3.7v-0.5c-0.3,0-0.6,0-0.7-0.1c-0.2-0.1-0.2-0.2-0.3-0.3
		c0-0.1-0.1-0.3-0.1-0.5v-1.7l1.5-2.4c0.3-0.4,0.4-0.7,0.6-0.8c0.1-0.2,0.3-0.3,0.4-0.4c0.1-0.1,0.3-0.1,0.5-0.1v-0.5H287.6z"/>
</g>
</svg>
