<?xml version="1.0" encoding="UTF-8" standalone="no"?><!DOCTYPE svg PUBLIC "-//W3C//DTD SVG 1.1//EN" "http://www.w3.org/Graphics/SVG/1.1/DTD/svg11.dtd"><svg width="100%" height="100%" viewBox="0 0 414 283" version="1.1" xmlns="http://www.w3.org/2000/svg" xmlns:xlink="http://www.w3.org/1999/xlink" xml:space="preserve" xmlns:serif="http://www.serif.com/" style="fill-rule:evenodd;clip-rule:evenodd;stroke-linecap:round;stroke-linejoin:round;stroke-miterlimit:1.5;"><g><path d="M90.905,163.818l-35.926,0l0,-100.365l-26.41,0c-0.926,0 -1.742,-0.552 -2.01,-1.358c-0.267,-0.806 0.077,-1.677 0.848,-2.143c11.61,-7.022 37.205,-22.501 43.904,-26.553c0.988,-0.598 2.274,-0.598 3.262,0c7.135,4.315 35.7,21.591 45.982,27.809c0.494,0.299 0.714,0.857 0.543,1.374c-0.172,0.517 -0.695,0.871 -1.289,0.871c-9.086,0 -28.904,0 -28.904,0l0,100.365Z"/><path d="M223.483,130.867l-35.927,0l0,-100.365l-26.41,0c-0.925,0 -1.742,-0.552 -2.009,-1.358c-0.268,-0.806 0.076,-1.676 0.847,-2.142c11.61,-7.022 37.205,-22.502 43.904,-26.554c0.989,-0.597 2.274,-0.597 3.263,0c7.134,4.315 35.699,21.591 45.981,27.81c0.494,0.299 0.715,0.857 0.543,1.374c-0.171,0.516 -0.695,0.87 -1.288,0.87c-9.087,0 -28.904,0 -28.904,0l0,100.365Z"/><path d="M356.419,163.818l-35.926,0l0,-100.365l-26.41,0c-0.926,0 -1.742,-0.552 -2.01,-1.358c-0.267,-0.806 0.077,-1.677 0.848,-2.143c11.61,-7.022 37.205,-22.501 43.904,-26.553c0.988,-0.598 2.274,-0.598 3.262,0c7.135,4.315 35.7,21.591 45.981,27.809c0.495,0.299 0.715,0.857 0.544,1.374c-0.172,0.517 -0.695,0.871 -1.289,0.871c-9.086,0 -28.904,0 -28.904,0l0,100.365Z"/><path d="M215.802,99c-6.248,-0.821 -12.577,-0.821 -18.825,0l-2.086,9.416c-3.279,0.607 -6.504,1.471 -9.647,2.585l-6.515,-7.111c-5.822,2.413 -11.302,5.577 -16.303,9.412l2.901,9.198c-2.536,2.164 -4.897,4.526 -7.062,7.062l-9.198,-2.901c-3.835,5 -6.999,10.481 -9.412,16.303l7.111,6.515c-1.114,3.142 -1.978,6.368 -2.584,9.647l-9.417,2.086c-0.821,6.248 -0.821,12.577 0,18.825l9.417,2.087c0.606,3.278 1.47,6.504 2.584,9.646l-7.111,6.516c2.413,5.821 5.577,11.302 9.412,16.302l9.198,-2.901c2.165,2.537 4.526,4.898 7.062,7.062l-2.901,9.198c5.001,3.835 10.481,7 16.303,9.413l6.515,-7.112c3.143,1.114 6.368,1.979 9.647,2.585l2.086,9.416c6.248,0.821 12.577,0.821 18.825,0l2.087,-9.416c3.278,-0.606 6.504,-1.471 9.646,-2.585l6.516,7.112c5.821,-2.413 11.302,-5.578 16.303,-9.413l-2.902,-9.198c2.537,-2.164 4.898,-4.525 7.062,-7.062l9.198,2.901c3.836,-5 7,-10.481 9.413,-16.302l-7.112,-6.516c1.115,-3.142 1.979,-6.368 2.585,-9.646l9.417,-2.087c0.821,-6.248 0.821,-12.577 0,-18.825l-9.417,-2.086c-0.606,-3.279 -1.47,-6.505 -2.585,-9.647l7.112,-6.515c-2.413,-5.822 -5.577,-11.303 -9.413,-16.303l-9.198,2.901c-2.164,-2.536 -4.525,-4.898 -7.062,-7.062l2.902,-9.198c-5.001,-3.835 -10.482,-6.999 -16.303,-9.412l-6.516,7.111c-3.142,-1.114 -6.368,-1.978 -9.646,-2.585l-2.087,-9.416Zm-9.412,31.867c21.943,0 39.757,17.815 39.757,39.758c0,21.942 -17.814,39.757 -39.757,39.757c-21.943,0 -39.758,-17.815 -39.758,-39.757c0,-21.943 17.815,-39.758 39.758,-39.758Z" style="stroke:#fff;stroke-width:4.5px;"/><path d="M195.225,159.46c6.162,-6.162 16.168,-6.162 22.329,0c6.162,6.162 6.162,16.167 0,22.329c-6.161,6.162 -16.167,6.162 -22.329,0c-6.162,-6.162 -6.162,-16.167 0,-22.329Z"/><path d="M326.151,133.195c-4.582,0.894 -9.067,2.23 -13.391,3.99l0.189,9.692c-4.198,1.984 -8.166,4.424 -11.831,7.277l-8.564,-4.541c-3.521,3.065 -6.737,6.465 -9.602,10.151l5.01,8.299c-2.645,3.818 -4.86,7.915 -6.608,12.217l-9.687,0.35c-1.517,4.416 -2.602,8.968 -3.24,13.593l8.488,4.682c-0.381,4.628 -0.252,9.284 0.386,13.884l-8.215,5.146c0.895,4.583 2.231,9.067 3.991,13.392l9.692,-0.19c1.984,4.199 4.424,8.167 7.276,11.832l-4.541,8.564c3.066,3.521 6.466,6.737 10.152,9.602l8.299,-5.01c3.817,2.644 7.914,4.86 12.217,6.608l0.35,9.687c4.415,1.517 8.967,2.602 13.592,3.24l4.682,-8.488c4.628,0.381 9.284,0.252 13.884,-0.386l5.147,8.214c4.582,-0.894 9.067,-2.23 13.391,-3.99l-0.189,-9.692c4.199,-1.984 8.166,-4.424 11.831,-7.276l8.564,4.54c3.522,-3.065 6.737,-6.465 9.602,-10.151l-5.009,-8.299c2.644,-3.818 4.86,-7.915 6.607,-12.217l9.688,-0.35c1.516,-4.415 2.601,-8.967 3.24,-13.592l-8.489,-4.682c0.382,-4.629 0.252,-9.285 -0.386,-13.885l8.215,-5.146c-0.894,-4.582 -2.231,-9.067 -3.991,-13.392l-9.691,0.19c-1.984,-4.199 -4.425,-8.167 -7.277,-11.831l4.541,-8.565c-3.066,-3.521 -6.466,-6.737 -10.152,-9.602l-8.298,5.01c-3.818,-2.644 -7.915,-4.86 -12.218,-6.608l-0.349,-9.687c-4.416,-1.517 -8.968,-2.602 -13.593,-3.24l-4.682,8.488c-4.628,-0.381 -9.284,-0.251 -13.884,0.386l-5.147,-8.214Zm2.961,34.399c20.146,-6.003 41.377,5.479 47.38,25.626c6.004,20.147 -5.479,41.377 -25.625,47.381c-20.147,6.003 -41.378,-5.479 -47.381,-25.626c-6.004,-20.147 5.479,-41.377 25.626,-47.381Z" style="stroke:#fff;stroke-width:4.5px;"/><path d="M328.824,192.933c6.162,-6.162 16.168,-6.162 22.33,0c6.162,6.162 6.162,16.167 0,22.329c-6.162,6.162 -16.168,6.162 -22.33,0c-6.161,-6.162 -6.161,-16.167 0,-22.329Z"/><path d="M59.975,137.811c-4.583,0.895 -9.067,2.231 -13.392,3.991l0.19,9.692c-4.199,1.984 -8.167,4.424 -11.832,7.276l-8.564,-4.541c-3.521,3.066 -6.737,6.466 -9.602,10.152l5.01,8.299c-2.644,3.817 -4.86,7.914 -6.608,12.217l-9.687,0.35c-1.517,4.415 -2.602,8.967 -3.24,13.592l8.488,4.682c-0.381,4.628 -0.252,9.284 0.386,13.884l-8.214,5.147c0.894,4.582 2.23,9.067 3.99,13.391l9.692,-0.189c1.984,4.199 4.424,8.166 7.276,11.831l-4.54,8.564c3.065,3.522 6.465,6.737 10.151,9.602l8.299,-5.009c3.818,2.644 7.915,4.86 12.217,6.607l0.35,9.688c4.415,1.516 8.968,2.601 13.592,3.24l4.682,-8.489c4.629,0.382 9.285,0.252 13.885,-0.386l5.146,8.215c4.582,-0.894 9.067,-2.231 13.392,-3.991l-0.19,-9.691c4.199,-1.984 8.167,-4.425 11.831,-7.277l8.565,4.541c3.521,-3.066 6.737,-6.466 9.602,-10.152l-5.01,-8.298c2.644,-3.818 4.86,-7.915 6.608,-12.218l9.687,-0.349c1.517,-4.416 2.602,-8.968 3.24,-13.593l-8.488,-4.682c0.381,-4.628 0.251,-9.284 -0.386,-13.884l8.214,-5.147c-0.894,-4.582 -2.23,-9.067 -3.99,-13.391l-9.692,0.189c-1.984,-4.198 -4.424,-8.166 -7.277,-11.831l4.541,-8.564c-3.065,-3.521 -6.465,-6.737 -10.151,-9.602l-8.299,5.01c-3.818,-2.645 -7.915,-4.86 -12.217,-6.608l-0.35,-9.687c-4.416,-1.517 -8.968,-2.602 -13.593,-3.24l-4.682,8.488c-4.628,-0.381 -9.284,-0.252 -13.884,0.386l-5.146,-8.215Zm2.96,34.4c20.147,-6.004 41.377,5.479 47.381,25.626c6.003,20.146 -5.479,41.377 -25.626,47.38c-20.147,6.004 -41.377,-5.479 -47.381,-25.625c-6.003,-20.147 5.479,-41.378 25.626,-47.381Z" style="stroke:#fff;stroke-width:4.5px;"/><path d="M62.648,197.549c6.162,-6.161 16.167,-6.161 22.329,0c6.162,6.162 6.162,16.168 0,22.33c-6.162,6.162 -16.167,6.162 -22.329,0c-6.162,-6.162 -6.162,-16.168 0,-22.33Z"/></g></svg>