<?xml version="1.0" encoding="UTF-8" standalone="no"?><!DOCTYPE svg PUBLIC "-//W3C//DTD SVG 1.1//EN" "http://www.w3.org/Graphics/SVG/1.1/DTD/svg11.dtd"><svg width="100%" height="100%" viewBox="0 0 374 266" version="1.1" xmlns="http://www.w3.org/2000/svg" xmlns:xlink="http://www.w3.org/1999/xlink" xml:space="preserve" xmlns:serif="http://www.serif.com/" style="fill-rule:evenodd;clip-rule:evenodd;stroke-linecap:round;stroke-linejoin:round;stroke-miterlimit:1.5;"><g id="Whiteboard-2"><path d="M367.621,25.954c0,-11.013 -8.942,-19.954 -19.955,-19.954l-321.712,0c-11.013,0 -19.954,8.941 -19.954,19.954l0,213.521c0,11.013 8.941,19.954 19.954,19.954l321.712,0c11.013,0 19.955,-8.941 19.955,-19.954l0,-213.521Z" style="fill:#fff;stroke:#000;stroke-width:12px;"/><rect x="95.814" y="29.122" width="5.952" height="213.345"/><rect x="182.981" y="29.122" width="5.952" height="213.345"/><rect x="271.435" y="29.122" width="5.952" height="213.345"/><rect x="16.661" y="49.781" width="75.509" height="20.903"/><rect x="16.661" y="80.773" width="75.509" height="20.903"/><rect x="104.679" y="49.781" width="75.509" height="20.903"/><rect x="104.679" y="80.773" width="75.509" height="20.903"/><rect x="192.697" y="49.781" width="75.509" height="20.903"/><rect x="192.697" y="80.773" width="75.509" height="20.903"/><rect x="104.679" y="111.146" width="75.509" height="20.903"/><rect x="281.955" y="111.146" width="75.509" height="20.903"/><rect x="104.679" y="141.518" width="75.509" height="20.903"/><rect x="281.335" y="49.781" width="75.509" height="20.903"/><rect x="281.335" y="82.013" width="75.509" height="20.903"/><rect x="16.661" y="109.906" width="75.509" height="20.903"/><rect x="16.661" y="140.898" width="75.509" height="20.903"/><rect x="16.661" y="171.271" width="75.509" height="20.903"/><rect x="16.661" y="201.643" width="75.509" height="20.903"/></g></svg>