<svg height='100px' width='100px'  fill="#ffffff" xmlns="http://www.w3.org/2000/svg" xmlns:xlink="http://www.w3.org/1999/xlink" version="1.1" x="0px" y="0px" viewBox="0 0 100 100" style="enable-background:new 0 0 100 100;" xml:space="preserve"><path d="M90.4,79.3L84,85.9c-0.2,0.2-0.4,0.3-0.7,0.3c-0.2,0-0.5-0.1-0.7-0.3c-0.4-0.4-0.4-1,0-1.4l4.9-5.1H55c-0.5,0-1-0.4-1-0.9  c0-0.5,0.3-1,0.8-1.1c14.3-2.7,24.7-15.2,24.7-29.8c0-16.7-13.6-30.3-30.3-30.3S18.9,30.9,18.9,47.6c0,14.9,11.1,27.8,25.8,30  c0.5,0.1,0.9,0.5,0.8,1.1c0,0.5-0.5,0.9-1,0.9h-33c-0.6,0-1-0.4-1-1c0-0.6,0.4-1,1-1h25.6c-11.9-4.8-20.2-16.6-20.2-30  c0-17.8,14.5-32.3,32.3-32.3s32.3,14.5,32.3,32.3c0,13.2-8,24.8-19.7,29.8h25.3l-4.6-4.7c-0.4-0.4-0.4-1,0-1.4c0.4-0.4,1-0.4,1.4,0  l6.4,6.6C90.8,78.3,90.8,78.9,90.4,79.3z"></path><g><path d="M55.4,65.5c9.7-3.3,14.8-13.9,11.5-23.5S53.1,27.1,43.4,30.4C33.8,33.8,28.6,44.3,31.9,54c1.7,4.8,5.1,8.7,9.7,10.8   l0.5,0.2l-2,1c-0.2,0.1-0.4,0.3-0.4,0.5c-0.1,0.2-0.1,0.5,0,0.7c0.2,0.4,0.7,0.6,1.2,0.4l3.9-1.9c0.4-0.2,0.6-0.7,0.4-1.1l-1.7-4   c-0.2-0.4-0.6-0.6-1.1-0.5l-0.1,0c-0.2,0.1-0.4,0.2-0.4,0.5c-0.1,0.2-0.1,0.4,0,0.7l1,2.3l-0.6-0.3c-4.2-1.9-7.3-5.4-8.8-9.8   c-3-8.8,1.7-18.3,10.4-21.3c8.8-3,18.3,1.7,21.3,10.5c3,8.8-1.7,18.3-10.4,21.3c-0.5,0.2-0.7,0.6-0.5,1.1   C54.5,65.4,55,65.6,55.4,65.5z"></path></g></svg>