<?xml version="1.0" encoding="UTF-8" standalone="no"?><!DOCTYPE svg PUBLIC "-//W3C//DTD SVG 1.1//EN" "http://www.w3.org/Graphics/SVG/1.1/DTD/svg11.dtd"><svg width="100%" height="100%" viewBox="0 0 332 242" version="1.1" xmlns="http://www.w3.org/2000/svg" xmlns:xlink="http://www.w3.org/1999/xlink" xml:space="preserve" xmlns:serif="http://www.serif.com/" style="fill-rule:evenodd;clip-rule:evenodd;stroke-linecap:round;stroke-linejoin:round;stroke-miterlimit:1.5;"><g><path d="M165,31.819c49.055,0 88.882,39.827 88.882,88.881c0,49.055 -39.827,88.882 -88.882,88.882c-49.055,0 -88.881,-39.827 -88.881,-88.882c0,-49.054 39.826,-88.881 88.881,-88.881Zm0,34.669c29.921,0 54.213,24.292 54.213,54.212c0,29.921 -24.292,54.213 -54.213,54.213c-29.92,0 -54.212,-24.292 -54.212,-54.213c0,-29.92 24.292,-54.212 54.212,-54.212Z"/><path d="M166.551,31.882l0,34.335l-135.99,0l0,18.407c0,1.72 -1.14,3.232 -2.795,3.706c-1.654,0.473 -3.421,-0.208 -4.331,-1.668c-7.1,-11.394 -17.521,-28.12 -21.653,-34.752c-1.091,-1.751 -1.091,-3.97 0,-5.721c4.665,-7.486 17.342,-27.833 24.21,-38.856c0.583,-0.936 1.717,-1.373 2.777,-1.069c1.061,0.303 1.792,1.273 1.792,2.376c0,9.441 0,23.242 0,23.242l135.99,0Z"/><path d="M165,209.454l0,-34.335l135.99,0l0,-18.407c0,-1.72 1.141,-3.233 2.795,-3.706c1.654,-0.473 3.422,0.208 4.331,1.668c7.1,11.394 17.521,28.12 21.653,34.752c1.091,1.751 1.091,3.97 0,5.721c-4.664,7.486 -17.342,27.833 -24.21,38.856c-0.583,0.936 -1.716,1.373 -2.777,1.069c-1.06,-0.303 -1.792,-1.273 -1.792,-2.376c0,-9.441 0,-23.242 0,-23.242l-135.99,0Z"/><path d="M275.231,115.419c1.103,0 2.072,-0.731 2.376,-1.791c0.303,-1.061 -0.133,-2.194 -1.069,-2.777c-11.024,-6.869 -31.37,-19.546 -38.856,-24.21c-1.751,-1.091 -3.971,-1.091 -5.722,0c-6.632,4.132 -23.357,14.553 -34.752,21.652c-1.46,0.91 -2.14,2.678 -1.667,4.332c0.473,1.654 1.985,2.794 3.706,2.794c20.477,0 58.854,0 75.984,0Z" style="stroke:#fff;stroke-width:1px;"/><path d="M253.738,112.837l-34.719,-0.141l-0.013,3.244l34.718,0.141l0.014,-3.244Z"/></g></svg>