<svg height='100px' width='100px'  fill="#ffffff" xmlns="http://www.w3.org/2000/svg" xmlns:xlink="http://www.w3.org/1999/xlink" version="1.1" x="0px" y="0px" viewBox="0 0 95 95" enable-background="new 0 0 95 95" xml:space="preserve"><g><path d="M42.551,37.641c-4.58,0.931-9.571,7.271-9.571,7.271l0,0c-0.793-0.362-1.76-0.219-2.412,0.433   c-0.839,0.839-0.839,2.2,0,3.04l2.116,2.116c0.839,0.839,2.2,0.839,3.04,0c0.495-0.495,0.696-1.172,0.607-1.816l1.352-1.349   c0.042,0.048,0.082,0.096,0.128,0.142L54.87,64.536c1.045,1.045,2.739,1.045,3.784,0c1.045-1.045,1.045-2.739,0-3.784   L42.472,44.572c0.031-0.808,0.131-2.056,0.441-3.232c0.513-1.951,6.47-2.814,6.47-2.814l-0.226-1.458   C49.157,37.068,46.776,36.783,42.551,37.641z"></path><path d="M56.679,43.705l-0.442-3.215l2.578-2.578c-1.807-0.518-3.833-0.067-5.256,1.356c-1.423,1.423-1.874,3.449-1.356,5.256   L35.935,60.792c-1.01,1.01-1.01,2.647,0,3.657c1.01,1.01,2.647,1.01,3.657,0L55.86,48.182c1.807,0.518,3.833,0.067,5.256-1.356   c1.423-1.423,1.874-3.449,1.356-5.256l-2.578,2.578L56.679,43.705z"></path><path d="M86.545,17.321H8.455C6.547,17.321,5,18.868,5,20.776v6.048v1.296v46.105c0,1.908,1.547,3.455,3.455,3.455h78.09   c1.908,0,3.455-1.547,3.455-3.455V28.119v-1.296v-6.048C90,18.868,88.453,17.321,86.545,17.321z M87.998,74.224   c0,0.801-0.652,1.453-1.453,1.453H8.455c-0.801,0-1.453-0.652-1.453-1.453V28.825h80.996V74.224z M25.104,20.996   c1.241,0,2.247,1.006,2.247,2.247s-1.006,2.247-2.247,2.247c-1.241,0-2.247-1.006-2.247-2.247S23.863,20.996,25.104,20.996z    M18.378,20.996c1.241,0,2.247,1.006,2.247,2.247s-1.006,2.247-2.247,2.247c-1.241,0-2.247-1.006-2.247-2.247   S17.137,20.996,18.378,20.996z M11.653,20.996c1.241,0,2.247,1.006,2.247,2.247s-1.006,2.247-2.247,2.247   c-1.241,0-2.247-1.006-2.247-2.247S10.412,20.996,11.653,20.996z"></path></g></svg>