<svg height='100px' width='100px'  fill="#ffffff" xmlns="http://www.w3.org/2000/svg" xmlns:xlink="http://www.w3.org/1999/xlink" version="1.1" x="0px" y="0px" viewBox="0 0 512 512" style="enable-background:new 0 0 512 512;" xml:space="preserve"><g><g><g><g><path d="M455.27,486l-22.155-20.4l21.675-23.494l-20.356-23.777l22.898-19.565l29.051,33.933      c4.96,5.793,4.8,14.377-0.372,19.982L455.27,486z"></path><rect x="81.412" y="427.639" width="393.7" height="30.101"></rect></g><g><path d="M98.924,345.95L61.28,318.653l17.7-24.36l27.108,19.657l21.263-21.761l21.56,21.026l-30.357,31.067      C114.63,350.045,105.096,351.049,98.924,345.95z"></path><path d="M248.485,457.739c-46.857,0-91.249-20.42-121.795-56.024l22.879-19.588c24.813,28.923,60.867,45.511,98.916,45.511      c71.859,0,130.32-58.514,130.32-130.437s-58.461-130.437-130.32-130.437c-71.858,0-130.319,58.514-130.319,130.437      c0,11.122,1.398,22.161,4.154,32.811l-29.172,7.535c-3.393-13.109-5.113-26.683-5.113-40.346      c0-88.521,71.978-160.538,160.45-160.538c88.473,0,160.451,72.017,160.451,160.538S336.959,457.739,248.485,457.739z"></path></g><g><path d="M124.436,113.309L98.217,98.477l15.873-28.002L85.734,50.67L102.998,26l39.583,27.648      c6.367,4.447,8.305,12.999,4.477,19.751L124.436,113.309z"></path><path d="M107.41,271.604C57.122,259.375,22,214.655,22,162.852c0-61.713,50.22-111.92,111.949-111.92v30.101      c-45.115,0-81.818,36.704-81.818,81.819c0,37.877,25.662,70.57,62.406,79.506L107.41,271.604z"></path></g></g><g><polygon points="199.244,293.839 230.889,280.822 222.182,259.286 160.755,284.766 160.755,302.871 222.243,328.39      230.236,306.81    "></polygon><polygon points="268.512,234.993 224.9,359.41 250.023,359.41 293.396,234.993    "></polygon><polygon points="297.018,259.192 290.162,280.878 321.833,293.831 290.508,306.757 296.923,328.477 356.6,302.85 356.6,284.785         "></polygon></g></g></g></svg>