<svg height='100px' width='100px'  fill="#ffffff" xmlns="http://www.w3.org/2000/svg" xmlns:xlink="http://www.w3.org/1999/xlink" version="1.1" x="0px" y="0px" viewBox="0 0 120 120" style="enable-background:new 0 0 120 120;" xml:space="preserve"><g><path d="M69.4,39.2H50.6c-1.7,0-3.1,1.5-3.1,3.1v56.2c0,1.7,1.5,3.1,3.1,3.1h18.8c1.7,0,3.1-1.5,3.1-3.1V42.3   C72.5,40.6,71,39.2,69.4,39.2z"></path><path d="M31.9,39.2H13.1c-1.7,0-3.1,1.5-3.1,3.1v64.6c0,1.7,1.5,3.1,3.1,3.1h18.8c1.7,0,3.1-1.5,3.1-3.1V42.3   C35,40.6,33.5,39.2,31.9,39.2z"></path><path d="M106.9,10H13.1c-1.7,0-3.1,1.5-3.1,3.1v10.4c0,1.7,1.5,3.1,3.1,3.1h93.8c1.7,0,3.1-1.5,3.1-3.1V13.1   C110,11.5,108.5,10,106.9,10z"></path><path d="M106.9,39.2H88.1c-1.7,0-3.1,1.5-3.1,3.1v47.9c0,1.7,1.5,3.1,3.1,3.1h18.8c1.7,0,3.1-1.5,3.1-3.1V42.3   C110,40.6,108.5,39.2,106.9,39.2z"></path></g></svg>